<?xml version="1.0" standalone="no"?>
<!DOCTYPE svg PUBLIC "-//W3C//DTD SVG 20010904//EN"
 "http://www.w3.org/TR/2001/REC-SVG-20010904/DTD/svg10.dtd">
<svg version="1.0" xmlns="http://www.w3.org/2000/svg"
 width="192.000000pt" height="192.000000pt" viewBox="0 0 192.000000 192.000000"
 preserveAspectRatio="xMidYMid meet">
<metadata>
Created by potrace 1.11, written by Peter Selinger 2001-2013
</metadata>
<g transform="translate(0.000000,192.000000) scale(0.100000,-0.100000)"
fill="#000000" stroke="none">
<path d="M1105 1863 c-225 -53 -452 -251 -684 -597 -135 -200 -215 -424 -228
-631 -11 -180 64 -335 211 -440 34 -23 84 -53 111 -65 28 -12 59 -26 70 -31
55 -24 183 -50 261 -53 303 -10 578 127 680 341 30 62 36 87 39 150 4 123 -31
228 -114 336 -97 126 -97 157 2 246 162 148 203 195 222 250 23 69 16 146 -19
205 -55 94 -247 243 -358 277 -55 18 -146 23 -193 12z m-16 -294 c71 -25 183
-91 227 -136 44 -44 63 -87 66 -147 2 -56 -9 -69 -31 -37 -38 58 -47 64 -75
57 -55 -14 -182 -255 -194 -367 -6 -64 19 -114 116 -234 98 -120 125 -172 125
-240 0 -222 -318 -297 -582 -137 -200 121 -290 304 -278 567 11 241 102 447
259 589 120 109 227 134 367 85z"/>
</g>
</svg>
